<?xml version="1.0" standalone="no"?>
<!DOCTYPE svg PUBLIC "-//W3C//DTD SVG 20010904//EN"
 "http://www.w3.org/TR/2001/REC-SVG-20010904/DTD/svg10.dtd">
<svg version="1.0" xmlns="http://www.w3.org/2000/svg"
 width="842.000000pt" height="744.000000pt" viewBox="0 0 842.000000 744.000000"
 preserveAspectRatio="xMidYMid meet">

<g transform="translate(0.000000,744.000000) scale(0.100000,-0.100000)"
fill="#000000" stroke="none">
<path d="M1485 6660 c-170 -34 -337 -160 -412 -310 -65 -130 -63 -94 -63
-1072 l0 -888 643 0 c487 0 646 -3 655 -12 17 -17 17 -302 -1 -316 -8 -7 -96
-12 -231 -14 -202 -3 -219 -4 -232 -22 -12 -17 -14 -99 -14 -481 0 -435 -1
-463 -18 -478 -27 -24 -303 -25 -326 -1 -14 14 -16 71 -16 478 0 383 -2 465
-14 482 -14 18 -32 19 -442 22 l-427 3 6 -47 c2 -25 10 -51 16 -57 8 -8 76
-13 206 -15 l195 -3 0 -1332 c0 -1471 -4 -1374 65 -1515 68 -138 217 -256 371
-296 56 -14 334 -16 2812 -16 l2751 0 79 25 c194 61 350 228 397 426 13 56 15
356 15 2499 0 2700 6 2482 -67 2630 -26 53 -56 94 -107 145 -82 81 -162 127
-272 155 -76 20 -119 20 -2803 19 -1499 -1 -2744 -5 -2766 -9z m1293 -2593 c7
-8 12 -117 14 -304 3 -276 4 -293 24 -319 49 -66 60 -69 237 -69 176 0 203 6
240 56 31 42 36 97 37 370 0 184 3 258 12 267 8 8 58 12 158 12 100 0 150 -4
158 -12 19 -19 17 -616 -3 -693 -22 -81 -60 -148 -117 -201 -107 -100 -232
-129 -528 -121 -145 4 -209 9 -250 22 -155 49 -239 128 -292 277 -21 59 -22
83 -26 379 -3 284 -2 317 13 332 14 14 40 17 164 17 109 0 151 -3 159 -13z
m1927 -2 c189 -48 323 -177 370 -356 17 -63 19 -243 4 -308 -37 -163 -166
-292 -335 -336 -87 -22 -235 -29 -339 -16 -139 18 -125 -1 -125 175 0 84 2
155 5 158 3 2 35 -2 72 -10 41 -8 104 -12 158 -10 164 7 228 61 228 193 0 89
-32 151 -93 183 -43 22 -53 23 -207 20 -145 -3 -165 -5 -190 -24 -64 -47 -63
-40 -63 -566 l0 -478 -175 0 -175 0 0 489 c0 268 4 510 9 537 35 183 144 301
321 348 80 21 453 22 535 1z m1495 -16 c70 -33 117 -79 148 -149 21 -45 26
-70 26 -145 1 -115 -25 -173 -97 -222 -68 -45 -121 -53 -377 -53 l-230 0 0 95
0 95 163 0 c188 0 207 6 207 67 0 68 -14 73 -182 73 -168 0 -196 -7 -245 -63
-42 -48 -58 -98 -57 -183 1 -115 43 -182 133 -212 23 -8 133 -12 332 -12 l299
0 0 -145 0 -145 -302 0 c-167 0 -331 5 -366 10 -190 31 -349 153 -413 317 -27
69 -37 232 -20 313 37 173 187 324 372 374 42 12 110 15 304 13 246 -2 251 -2
305 -28z m1114 15 c13 -12 16 -40 16 -139 0 -158 3 -155 -133 -155 -160 -1
-235 -15 -273 -51 -49 -48 -54 -80 -54 -369 0 -231 -2 -266 -17 -282 -14 -16
-33 -18 -155 -18 -194 0 -178 -27 -178 308 1 300 11 385 58 487 55 117 146
189 275 221 32 7 129 13 249 13 166 1 199 -1 212 -15z"/>
</g>
</svg>
